<?xml version="1.0" encoding="UTF-8" standalone="no"?>
<!-- Created with Inkscape (http://www.inkscape.org/) -->

<svg
   width="120mm"
   height="49mm"
   viewBox="0 0 120 49"
   version="1.1"
   id="svg3965"
   inkscape:version="1.2.2 (732a01da63, 2022-12-09)"
   sodipodi:docname="Logo DGPR.svg"
   xmlns:inkscape="http://www.inkscape.org/namespaces/inkscape"
   xmlns:sodipodi="http://sodipodi.sourceforge.net/DTD/sodipodi-0.dtd"
   xmlns:xlink="http://www.w3.org/1999/xlink"
   xmlns="http://www.w3.org/2000/svg"
   xmlns:svg="http://www.w3.org/2000/svg">
  <sodipodi:namedview
     id="namedview3967"
     pagecolor="#505050"
     bordercolor="#eeeeee"
     borderopacity="1"
     inkscape:showpageshadow="0"
     inkscape:pageopacity="0"
     inkscape:pagecheckerboard="0"
     inkscape:deskcolor="#505050"
     inkscape:document-units="mm"
     showgrid="false"
     inkscape:zoom="0.73851712"
     inkscape:cx="35.205684"
     inkscape:cy="185.50687"
     inkscape:window-width="1920"
     inkscape:window-height="1009"
     inkscape:window-x="-8"
     inkscape:window-y="-8"
     inkscape:window-maximized="1"
     inkscape:current-layer="g6571" />
  <defs
     id="defs3962">
    <linearGradient
       inkscape:collect="always"
       xlink:href="#linearGradient3940"
       id="linearGradient3952"
       x1="100.22773"
       y1="12.924201"
       x2="116.17249"
       y2="12.924201"
       gradientUnits="userSpaceOnUse" />
    <linearGradient
       inkscape:collect="always"
       id="linearGradient3940">
      <stop
         style="stop-color:#f4944e;stop-opacity:0;"
         offset="0.30783582"
         id="stop3938" />
      <stop
         style="stop-color:#f4944e;stop-opacity:1;"
         offset="0.66604477"
         id="stop3936" />
    </linearGradient>
    <linearGradient
       inkscape:collect="always"
       xlink:href="#linearGradient3958"
       id="linearGradient3942"
       x1="100.22773"
       y1="12.924201"
       x2="116.17249"
       y2="12.924201"
       gradientUnits="userSpaceOnUse" />
    <linearGradient
       inkscape:collect="always"
       id="linearGradient3958">
      <stop
         style="stop-color:#f4944e;stop-opacity:1;"
         offset="0.26492539"
         id="stop3956" />
      <stop
         style="stop-color:#f4944e;stop-opacity:0;"
         offset="0.61380595"
         id="stop3954" />
    </linearGradient>
    <linearGradient
       inkscape:collect="always"
       xlink:href="#linearGradient3926"
       id="linearGradient3920"
       x1="84.426323"
       y1="13.08405"
       x2="100.32148"
       y2="13.08405"
       gradientUnits="userSpaceOnUse" />
    <linearGradient
       inkscape:collect="always"
       id="linearGradient3926">
      <stop
         style="stop-color:#f4944e;stop-opacity:1;"
         offset="0.2779851"
         id="stop3924" />
      <stop
         style="stop-color:#f4944e;stop-opacity:0;"
         offset="0.59141788"
         id="stop3922" />
    </linearGradient>
    <linearGradient
       inkscape:collect="always"
       xlink:href="#linearGradient3908"
       id="linearGradient3910"
       x1="84.426323"
       y1="13.08405"
       x2="100.32148"
       y2="13.08405"
       gradientUnits="userSpaceOnUse" />
    <linearGradient
       inkscape:collect="always"
       id="linearGradient3908">
      <stop
         style="stop-color:#f4944e;stop-opacity:0;"
         offset="0.23694032"
         id="stop3906" />
      <stop
         style="stop-color:#f4944e;stop-opacity:1;"
         offset="0.72947761"
         id="stop3904" />
    </linearGradient>
    <linearGradient
       inkscape:collect="always"
       xlink:href="#linearGradient3872"
       id="linearGradient3874"
       x1="67.569817"
       y1="13.829652"
       x2="83.216927"
       y2="13.829652"
       gradientUnits="userSpaceOnUse" />
    <linearGradient
       inkscape:collect="always"
       id="linearGradient3872">
      <stop
         style="stop-color:#f4944e;stop-opacity:0;"
         offset="0.28358209"
         id="stop3870" />
      <stop
         style="stop-color:#f4944e;stop-opacity:1;"
         offset="0.65858209"
         id="stop3868" />
    </linearGradient>
    <linearGradient
       inkscape:collect="always"
       xlink:href="#linearGradient3890"
       id="linearGradient3896"
       x1="67.569817"
       y1="13.829652"
       x2="83.216927"
       y2="13.829652"
       gradientUnits="userSpaceOnUse" />
    <linearGradient
       inkscape:collect="always"
       id="linearGradient3890">
      <stop
         style="stop-color:#f4944e;stop-opacity:1;"
         offset="0.34141791"
         id="stop3888" />
      <stop
         style="stop-color:#f4944e;stop-opacity:0;"
         offset="0.71641791"
         id="stop3886" />
    </linearGradient>
    <linearGradient
       inkscape:collect="always"
       xlink:href="#linearGradient3848"
       id="linearGradient3862"
       x1="51.559261"
       y1="-8.0146885"
       x2="67.510277"
       y2="-8.0146885"
       gradientUnits="userSpaceOnUse" />
    <linearGradient
       inkscape:collect="always"
       id="linearGradient3848">
      <stop
         style="stop-color:#f4944e;stop-opacity:0;"
         offset="0.22388056"
         id="stop3844" />
      <stop
         style="stop-color:#f4944e;stop-opacity:1;"
         offset="0.65671647"
         id="stop3846" />
    </linearGradient>
    <linearGradient
       inkscape:collect="always"
       xlink:href="#linearGradient3009"
       id="linearGradient3856"
       x1="51.559261"
       y1="-8.0146885"
       x2="67.510277"
       y2="-8.0146885"
       gradientUnits="userSpaceOnUse" />
    <linearGradient
       inkscape:collect="always"
       id="linearGradient3009">
      <stop
         style="stop-color:#f4944e;stop-opacity:1;"
         offset="0.28171641"
         id="stop3005" />
      <stop
         style="stop-color:#f4944e;stop-opacity:0;"
         offset="0.68843287"
         id="stop3007" />
    </linearGradient>
    <linearGradient
       inkscape:collect="always"
       xlink:href="#linearGradient3940"
       id="linearGradient5570"
       gradientUnits="userSpaceOnUse"
       x1="100.22773"
       y1="12.924201"
       x2="116.17249"
       y2="12.924201" />
    <linearGradient
       inkscape:collect="always"
       xlink:href="#linearGradient3958"
       id="linearGradient5572"
       gradientUnits="userSpaceOnUse"
       x1="100.22773"
       y1="12.924201"
       x2="116.17249"
       y2="12.924201" />
    <linearGradient
       inkscape:collect="always"
       xlink:href="#linearGradient3926"
       id="linearGradient5574"
       gradientUnits="userSpaceOnUse"
       x1="84.426323"
       y1="13.08405"
       x2="100.32148"
       y2="13.08405" />
    <linearGradient
       inkscape:collect="always"
       xlink:href="#linearGradient3908"
       id="linearGradient5576"
       gradientUnits="userSpaceOnUse"
       x1="84.426323"
       y1="13.08405"
       x2="100.32148"
       y2="13.08405" />
    <linearGradient
       inkscape:collect="always"
       xlink:href="#linearGradient3872"
       id="linearGradient5578"
       gradientUnits="userSpaceOnUse"
       x1="67.569817"
       y1="13.829652"
       x2="83.216927"
       y2="13.829652" />
    <linearGradient
       inkscape:collect="always"
       xlink:href="#linearGradient3890"
       id="linearGradient5580"
       gradientUnits="userSpaceOnUse"
       x1="67.569817"
       y1="13.829652"
       x2="83.216927"
       y2="13.829652" />
    <linearGradient
       inkscape:collect="always"
       xlink:href="#linearGradient3848"
       id="linearGradient5582"
       gradientUnits="userSpaceOnUse"
       x1="51.559261"
       y1="-8.0146885"
       x2="67.510277"
       y2="-8.0146885" />
    <linearGradient
       inkscape:collect="always"
       xlink:href="#linearGradient3009"
       id="linearGradient5584"
       gradientUnits="userSpaceOnUse"
       x1="51.559261"
       y1="-8.0146885"
       x2="67.510277"
       y2="-8.0146885" />
    <filter
       style="color-interpolation-filters:sRGB"
       inkscape:label="Drop Shadow"
       id="filter4361"
       x="-0.0051963979"
       y="-0.019525717"
       width="1.0188767"
       height="1.0868709">
      <feFlood
         flood-opacity="0.670588"
         flood-color="rgb(0,0,0)"
         result="flood"
         id="feFlood4351" />
      <feComposite
         in="flood"
         in2="SourceGraphic"
         operator="in"
         result="composite1"
         id="feComposite4353" />
      <feGaussianBlur
         in="composite1"
         stdDeviation="0.1"
         result="blur"
         id="feGaussianBlur4355" />
      <feOffset
         dx="0.4"
         dy="0.6"
         result="offset"
         id="feOffset4357" />
      <feComposite
         in="SourceGraphic"
         in2="offset"
         operator="over"
         result="composite2"
         id="feComposite4359" />
    </filter>
    <filter
       style="color-interpolation-filters:sRGB"
       inkscape:label="Drop Shadow"
       id="filter5996"
       x="-0.0051963972"
       y="-0.019526122"
       width="1.0188767"
       height="1.0868713">
      <feFlood
         flood-opacity="0.670588"
         flood-color="rgb(0,0,0)"
         result="flood"
         id="feFlood5986" />
      <feComposite
         in="flood"
         in2="SourceGraphic"
         operator="in"
         result="composite1"
         id="feComposite5988" />
      <feGaussianBlur
         in="composite1"
         stdDeviation="0.1"
         result="blur"
         id="feGaussianBlur5990" />
      <feOffset
         dx="0.4"
         dy="0.6"
         result="offset"
         id="feOffset5992" />
      <feComposite
         in="SourceGraphic"
         in2="offset"
         operator="over"
         result="composite2"
         id="feComposite5994" />
    </filter>
    <filter
       style="color-interpolation-filters:sRGB"
       inkscape:label="Drop Shadow"
       id="filter6008"
       x="-0.0051963972"
       y="-0.019526122"
       width="1.0188767"
       height="1.0868713">
      <feFlood
         flood-opacity="0.670588"
         flood-color="rgb(0,0,0)"
         result="flood"
         id="feFlood5998" />
      <feComposite
         in="flood"
         in2="SourceGraphic"
         operator="in"
         result="composite1"
         id="feComposite6000" />
      <feGaussianBlur
         in="composite1"
         stdDeviation="0.1"
         result="blur"
         id="feGaussianBlur6002" />
      <feOffset
         dx="0.4"
         dy="0.6"
         result="offset"
         id="feOffset6004" />
      <feComposite
         in="SourceGraphic"
         in2="offset"
         operator="over"
         result="composite2"
         id="feComposite6006" />
    </filter>
    <filter
       style="color-interpolation-filters:sRGB"
       inkscape:label="Drop Shadow"
       id="filter6020"
       x="-0.0051963972"
       y="-0.019526122"
       width="1.0188767"
       height="1.0868713">
      <feFlood
         flood-opacity="0.670588"
         flood-color="rgb(0,0,0)"
         result="flood"
         id="feFlood6010" />
      <feComposite
         in="flood"
         in2="SourceGraphic"
         operator="in"
         result="composite1"
         id="feComposite6012" />
      <feGaussianBlur
         in="composite1"
         stdDeviation="0.1"
         result="blur"
         id="feGaussianBlur6014" />
      <feOffset
         dx="0.4"
         dy="0.6"
         result="offset"
         id="feOffset6016" />
      <feComposite
         in="SourceGraphic"
         in2="offset"
         operator="over"
         result="composite2"
         id="feComposite6018" />
    </filter>
  </defs>
  <g
     inkscape:label="Camada 1"
     inkscape:groupmode="layer"
     id="layer1">
    <g
       id="g6571">
      <g
         id="g6681"
         transform="translate(-34.393245,-17.554885)">
        <rect
           style="fill:#000000;fill-opacity:1;stroke:#d45500;stroke-width:0.00874314;stroke-linecap:round;stroke-dasharray:none;stroke-opacity:1"
           id="rect4984"
           width="117.11874"
           height="46.58633"
           x="36.022057"
           y="18.981869"
           ry="23.293165" />
        <g
           aria-label="R"
           id="g3934"
           style="font-size:25.4px;font-family:'moon light';-inkscape-font-specification:'moon light, Normal';fill:#f9f9f9;fill-opacity:1;stroke:#000000;stroke-width:1.31;stroke-linecap:round;stroke-dasharray:none;stroke-opacity:1"
           transform="matrix(1.406795,0,0,1.2571341,-33.448653,17.257174)">
          <path
             d="m 104.15694,4.5650214 h 5.20898 c 2.86908,0 4.85346,1.4221354 5.95313,4.2664062 0.13229,0.5457031 0.19844,1.0252602 0.19844,1.4386714 v 0.545704 c 0,1.16582 -0.44649,2.306835 -1.33946,3.423046 0.89297,1.653646 1.33946,2.728516 1.33946,3.22461 v 0.545703 c 0,1.289843 -0.74414,2.298567 -2.23243,3.026172 -0.42995,0.165365 -0.85989,0.248047 -1.28984,0.248047 -1.66191,0 -2.90215,-1.07487 -3.7207,-3.22461 -0.0579,-0.0083 -0.17362,-0.239777 -0.34727,-0.694531 h -0.0496 v 0.396875 c 0,1.686719 -0.9095,2.844271 -2.72851,3.472656 l -0.54571,0.04961 h -0.44648 c -1.36426,0 -2.40606,-0.79375 -3.12539,-2.38125 -0.0992,-0.355534 -0.14883,-0.65319 -0.14883,-0.892969 V 7.8392401 c 0,-1.298112 0.74414,-2.3233724 2.23242,-3.0757812 0.41341,-0.1322917 0.76068,-0.1984375 1.0418,-0.1984375 z"
             id="path3932"
             sodipodi:nodetypes="cscsscsscscccsccscsscsc"
             style="fill:#f9f9f9;fill-opacity:1;stroke:#000000;stroke-width:1.31;stroke-dasharray:none;stroke-opacity:1" />
        </g>
        <g
           aria-label="R"
           id="g3946"
           style="font-size:25.4px;font-family:'moon light';-inkscape-font-specification:'moon light, Normal';fill:url(#linearGradient3952);fill-opacity:1;stroke:#000000;stroke-width:1.31;stroke-linecap:round;stroke-dasharray:none;stroke-opacity:1"
           transform="matrix(1.406795,0,0,1.2571341,-33.448653,17.257174)">
          <path
             d="m 104.15694,4.5650214 h 5.20898 c 2.86908,0 4.85346,1.4221354 5.95313,4.2664062 0.13229,0.5457031 0.19844,1.0252602 0.19844,1.4386714 v 0.545704 c 0,1.16582 -0.44649,2.306835 -1.33946,3.423046 0.89297,1.653646 1.33946,2.728516 1.33946,3.22461 v 0.545703 c 0,1.289843 -0.74414,2.298567 -2.23243,3.026172 -0.42995,0.165365 -0.85989,0.248047 -1.28984,0.248047 -1.66191,0 -2.90215,-1.07487 -3.7207,-3.22461 -0.0579,-0.0083 -0.17362,-0.239777 -0.34727,-0.694531 h -0.0496 v 0.396875 c 0,1.686719 -0.9095,2.844271 -2.72851,3.472656 l -0.54571,0.04961 h -0.44648 c -1.36426,0 -2.40606,-0.79375 -3.12539,-2.38125 -0.0992,-0.355534 -0.14883,-0.65319 -0.14883,-0.892969 V 7.8392401 c 0,-1.298112 0.74414,-2.3233724 2.23242,-3.0757812 0.41341,-0.1322917 0.76068,-0.1984375 1.0418,-0.1984375 z"
             id="path3944"
             sodipodi:nodetypes="cscsscsscscccsccscsscsc"
             style="fill:url(#linearGradient5570);fill-opacity:1;stroke:#000000;stroke-width:1.31;stroke-dasharray:none;stroke-opacity:1" />
        </g>
        <g
           aria-label="R"
           id="text587"
           style="font-size:25.4px;font-family:'moon light';-inkscape-font-specification:'moon light, Normal';fill:url(#linearGradient3942);fill-opacity:1;stroke:#000000;stroke-width:1.31;stroke-linecap:round;stroke-dasharray:none;stroke-opacity:1"
           transform="matrix(1.406795,0,0,1.2571341,-33.448653,17.257174)">
          <path
             d="m 104.15694,4.5650214 h 5.20898 c 2.86908,0 4.85346,1.4221354 5.95313,4.2664062 0.13229,0.5457031 0.19844,1.0252602 0.19844,1.4386714 v 0.545704 c 0,1.16582 -0.44649,2.306835 -1.33946,3.423046 0.89297,1.653646 1.33946,2.728516 1.33946,3.22461 v 0.545703 c 0,1.289843 -0.74414,2.298567 -2.23243,3.026172 -0.42995,0.165365 -0.85989,0.248047 -1.28984,0.248047 -1.66191,0 -2.90215,-1.07487 -3.7207,-3.22461 -0.0579,-0.0083 -0.17362,-0.239777 -0.34727,-0.694531 h -0.0496 v 0.396875 c 0,1.686719 -0.9095,2.844271 -2.72851,3.472656 l -0.54571,0.04961 h -0.44648 c -1.36426,0 -2.40606,-0.79375 -3.12539,-2.38125 -0.0992,-0.355534 -0.14883,-0.65319 -0.14883,-0.892969 V 7.8392401 c 0,-1.298112 0.74414,-2.3233724 2.23242,-3.0757812 0.41341,-0.1322917 0.76068,-0.1984375 1.0418,-0.1984375 z"
             id="path695"
             sodipodi:nodetypes="cscsscsscscccsccscsscsc"
             style="fill:url(#linearGradient5572);fill-opacity:1;stroke:#000000;stroke-width:1.31;stroke-dasharray:none;stroke-opacity:1" />
        </g>
        <g
           aria-label="P"
           id="g3902"
           style="font-size:25.4px;font-family:'moon light';-inkscape-font-specification:'moon light, Normal';fill:#f2f2f2;fill-opacity:1;stroke:#000000;stroke-width:1.31;stroke-linecap:round;stroke-dasharray:none;stroke-opacity:1"
           transform="matrix(1.406795,0,0,1.2571341,-26.473978,17.374774)">
          <path
             d="m 88.256322,4.7496749 h 5.754687 c 2.017448,0 3.671094,1.0252604 4.960937,3.0757812 0.463021,0.8847005 0.694532,1.7445964 0.694532,2.5796879 v 0.545703 c 0,1.794205 -0.892969,3.348632 -2.678906,4.663281 -1.008724,0.628385 -1.984375,0.942578 -2.926954,0.942578 h -1.984375 v 1.041797 c 0,1.868619 -0.826823,3.092317 -2.480468,3.671093 -0.214974,0.09922 -0.479557,0.148829 -0.79375,0.148829 h -0.545703 c -1.099675,0 -2.058789,-0.661458 -2.877344,-1.984375 -0.198437,-0.504362 -0.297656,-0.93431 -0.297656,-1.289844 V 8.0238936 c 0,-1.4221354 0.843359,-2.4804687 2.530078,-3.175 z"
             id="path3900"
             sodipodi:nodetypes="cscsscscscsscsscc"
             style="fill:#f2f2f2;fill-opacity:1;stroke:#000000;stroke-width:1.31;stroke-dasharray:none;stroke-opacity:1" />
        </g>
        <g
           aria-label="P"
           id="g3914"
           style="font-size:25.4px;font-family:'moon light';-inkscape-font-specification:'moon light, Normal';fill:url(#linearGradient3920);fill-opacity:1;stroke:#000000;stroke-width:1.31;stroke-linecap:round;stroke-dasharray:none;stroke-opacity:1"
           transform="matrix(1.406795,0,0,1.2571341,-26.473978,17.374774)">
          <path
             d="m 88.256322,4.7496749 h 5.754687 c 2.017448,0 3.671094,1.0252604 4.960937,3.0757812 0.463021,0.8847005 0.694532,1.7445964 0.694532,2.5796879 v 0.545703 c 0,1.794205 -0.892969,3.348632 -2.678906,4.663281 -1.008724,0.628385 -1.984375,0.942578 -2.926954,0.942578 h -1.984375 v 1.041797 c 0,1.868619 -0.826823,3.092317 -2.480468,3.671093 -0.214974,0.09922 -0.479557,0.148829 -0.79375,0.148829 h -0.545703 c -1.099675,0 -2.058789,-0.661458 -2.877344,-1.984375 -0.198437,-0.504362 -0.297656,-0.93431 -0.297656,-1.289844 V 8.0238936 c 0,-1.4221354 0.843359,-2.4804687 2.530078,-3.175 z"
             id="path3912"
             sodipodi:nodetypes="cscsscscscsscsscc"
             style="fill:url(#linearGradient5574);fill-opacity:1;stroke:#000000;stroke-width:1.31;stroke-dasharray:none;stroke-opacity:1" />
        </g>
        <g
           aria-label="P"
           id="text583"
           style="font-size:25.4px;font-family:'moon light';-inkscape-font-specification:'moon light, Normal';fill:url(#linearGradient3910);fill-opacity:1;stroke:#000000;stroke-width:1.31;stroke-linecap:round;stroke-dasharray:none;stroke-opacity:1"
           transform="matrix(1.406795,0,0,1.2571341,-26.628967,17.374774)">
          <path
             d="m 88.256322,4.7496749 h 5.754687 c 2.017448,0 3.671094,1.0252604 4.960937,3.0757812 0.463021,0.8847005 0.694532,1.7445964 0.694532,2.5796879 v 0.545703 c 0,1.794205 -0.892969,3.348632 -2.678906,4.663281 -1.008724,0.628385 -1.984375,0.942578 -2.926954,0.942578 h -1.984375 v 1.041797 c 0,1.868619 -0.826823,3.092317 -2.480468,3.671093 -0.214974,0.09922 -0.479557,0.148829 -0.79375,0.148829 h -0.545703 c -1.099675,0 -2.058789,-0.661458 -2.877344,-1.984375 -0.198437,-0.504362 -0.297656,-0.93431 -0.297656,-1.289844 V 8.0238936 c 0,-1.4221354 0.843359,-2.4804687 2.530078,-3.175 z"
             id="path692"
             sodipodi:nodetypes="cscsscscscsscsscc"
             style="fill:url(#linearGradient5576);fill-opacity:1;stroke:#000000;stroke-width:1.31;stroke-dasharray:none;stroke-opacity:1" />
        </g>
        <g
           aria-label="G "
           id="g3866"
           style="font-size:19.7556px;font-family:'moon light';-inkscape-font-specification:'moon light, Normal';fill:#ffffff;fill-opacity:1;stroke:#000000;stroke-width:1.31;stroke-linecap:round;stroke-dasharray:none;stroke-opacity:1"
           transform="matrix(1.42703,0,0,1.2472021,-20.073012,16.489244)">
          <path
             d="m 75.170128,5.4952765 h 4.067968 c 1.265039,0 2.273763,0.7276042 3.026172,2.1828125 0.165365,0.4299479 0.248047,0.8598958 0.248047,1.2898437 0,1.7445963 -0.975651,2.9021483 -2.926953,3.4726563 l -0.79375,0.04961 h -3.373437 l -0.198438,0.198438 v 2.282031 c 0.176857,0.191985 -0.29817,0.0959 0.530731,0.576025 l 0.724714,0.188794 c 0.287747,0.07496 -1.248981,-0.490913 -0.710481,-2.086454 0.536569,-1.338955 2.100871,-0.910787 3.324569,-0.910787 1.546159,0 2.670639,0.843359 3.373438,2.530078 l 0.09922,0.744141 v 0.496094 c 0,1.116211 -0.744141,2.406054 -2.232422,3.869531 -1.44694,1.190625 -2.935221,1.785937 -4.464844,1.785937 h -0.694531 c -1.934766,0 -3.704167,-0.892969 -5.308203,-2.678906 -1.091407,-1.413867 -1.63711,-2.836003 -1.63711,-4.266406 V 12.44059 c 0,-1.934766 0.892969,-3.7041667 2.678907,-5.3082031 1.413867,-1.0914063 2.836002,-1.6371094 4.266406,-1.6371094 z"
             style="font-size:25.4px;fill:#ffffff;fill-opacity:1;stroke:#000000;stroke-width:1.31;stroke-dasharray:none;stroke-opacity:1"
             id="path3864"
             sodipodi:nodetypes="cscsccccccscsccscsscsscsc" />
        </g>
        <g
           aria-label="G "
           id="text579-5"
           style="font-size:19.7556px;font-family:'moon light';-inkscape-font-specification:'moon light, Normal';fill:url(#linearGradient3874);fill-opacity:1;stroke:#000000;stroke-width:1.31;stroke-linecap:round;stroke-dasharray:none;stroke-opacity:1"
           transform="matrix(1.42703,0,0,1.2472021,-20.073012,16.489244)">
          <path
             d="m 75.170128,5.4952765 h 4.067968 c 1.265039,0 2.273763,0.7276042 3.026172,2.1828125 0.165365,0.4299479 0.248047,0.8598958 0.248047,1.2898437 0,1.7445963 -0.975651,2.9021483 -2.926953,3.4726563 l -0.79375,0.04961 h -3.373437 l -0.198438,0.198438 v 2.282031 c 0.176857,0.191985 -0.29817,0.0959 0.530731,0.576025 l 0.724714,0.188794 c 0.287747,0.07496 -1.248981,-0.490913 -0.710481,-2.086454 0.536569,-1.338955 2.100871,-0.910787 3.324569,-0.910787 1.546159,0 2.670639,0.843359 3.373438,2.530078 l 0.09922,0.744141 v 0.496094 c 0,1.116211 -0.744141,2.406054 -2.232422,3.869531 -1.44694,1.190625 -2.935221,1.785937 -4.464844,1.785937 h -0.694531 c -1.934766,0 -3.704167,-0.892969 -5.308203,-2.678906 -1.091407,-1.413867 -1.63711,-2.836003 -1.63711,-4.266406 V 12.44059 c 0,-1.934766 0.892969,-3.7041667 2.678907,-5.3082031 1.413867,-1.0914063 2.836002,-1.6371094 4.266406,-1.6371094 z"
             style="font-size:25.4px;fill:url(#linearGradient5578);fill-opacity:1;stroke:#000000;stroke-width:1.31;stroke-dasharray:none;stroke-opacity:1"
             id="path698-9"
             sodipodi:nodetypes="cscsccccccscsccscsscsscsc" />
        </g>
        <g
           aria-label="D"
           id="g420"
           style="font-size:25.4px;font-family:'Bauhaus 93';-inkscape-font-specification:'Bauhaus 93, Normal';fill:#f9f9f9;fill-opacity:1;stroke:#000000;stroke-width:1.31;stroke-linecap:round;stroke-dasharray:none;stroke-opacity:1"
           transform="matrix(1.406795,0,0,1.2571341,-12.129827,43.246284)">
          <path
             d="m 55.39551,-16.387921 h 4.365625 c 2.372982,0 4.373894,1.141015 6.002735,3.423046 0.727604,1.248503 1.091406,2.422591 1.091406,3.5222661 v 2.778125 c 0,2.025716 -0.975651,3.861263 -2.926953,5.50664 -1.339453,0.95911503 -2.728516,1.43867203 -4.167188,1.43867203 H 55.39551 c -2.937335,0.0352128 -3.20173,0.43878545 -3.174999,-1.09140583 l -1e-6,-2.0835942 V -13.212921 c 0.01747,-1.717998 0.0013,-1.69835 -0.0039,-3.173372 1.138923,0.01778 2.073383,-0.0016 3.178875,-0.0016 z"
             style="font-family:'moon light';-inkscape-font-specification:'moon light, Normal';fill:#f9f9f9;fill-opacity:1;stroke:#000000;stroke-width:1.31;stroke-dasharray:none;stroke-opacity:1"
             id="path418"
             sodipodi:nodetypes="cscsscscccccc" />
        </g>
        <g
           aria-label="G "
           id="g3878"
           style="font-size:19.7556px;font-family:'moon light';-inkscape-font-specification:'moon light, Normal';fill:url(#linearGradient3896);fill-opacity:1;stroke:#000000;stroke-width:1.31;stroke-linecap:round;stroke-dasharray:none;stroke-opacity:1"
           transform="matrix(1.42703,0,0,1.2472021,-20.073012,16.302154)">
          <path
             d="m 75.170128,5.4952765 h 4.067968 c 1.265039,0 2.273763,0.7276042 3.026172,2.1828125 0.165365,0.4299479 0.248047,0.8598958 0.248047,1.2898437 0,1.7445963 -0.975651,2.9021483 -2.926953,3.4726563 l -0.79375,0.04961 h -3.373437 l -0.198438,0.198438 v 2.282031 c 0.176857,0.191985 -0.29817,0.0959 0.530731,0.576025 l 0.724714,0.188794 c 0.287747,0.07496 -1.248981,-0.490913 -0.710481,-2.086454 0.536569,-1.338955 2.100871,-0.910787 3.324569,-0.910787 1.546159,0 2.670639,0.843359 3.373438,2.530078 l 0.09922,0.744141 v 0.496094 c 0,1.116211 -0.744141,2.406054 -2.232422,3.869531 -1.44694,1.190625 -2.935221,1.785937 -4.464844,1.785937 h -0.694531 c -1.934766,0 -3.704167,-0.892969 -5.308203,-2.678906 -1.091407,-1.413867 -1.63711,-2.836003 -1.63711,-4.266406 V 12.44059 c 0,-1.934766 0.892969,-3.7041667 2.678907,-5.3082031 1.413867,-1.0914063 2.836002,-1.6371094 4.266406,-1.6371094 z"
             style="font-size:25.4px;fill:url(#linearGradient5580);fill-opacity:1;stroke:#000000;stroke-width:1.31;stroke-dasharray:none;stroke-opacity:1"
             id="path3876"
             sodipodi:nodetypes="cscsccccccscsccscsscsscsc" />
        </g>
        <g
           aria-label="D"
           id="g3804"
           style="font-size:25.4px;font-family:'Bauhaus 93';-inkscape-font-specification:'Bauhaus 93, Normal';fill:url(#linearGradient3862);fill-opacity:1;stroke:#000000;stroke-width:1.31;stroke-linecap:round;stroke-dasharray:none;stroke-opacity:1"
           transform="matrix(1.406795,0,0,1.2571341,-12.083054,43.246284)">
          <path
             d="m 55.39551,-16.387921 h 4.365625 c 2.372982,0 4.373894,1.141015 6.002735,3.423046 0.727604,1.248503 1.091406,2.422591 1.091406,3.5222661 v 2.778125 c 0,2.025716 -0.975651,3.861263 -2.926953,5.50664 -1.339453,0.95911503 -2.728516,1.43867203 -4.167188,1.43867203 H 55.39551 c -2.937335,0.0352128 -3.20173,0.43878545 -3.174999,-1.09140583 l -1e-6,-2.0835942 V -13.212921 c 0.01747,-1.717998 0.0013,-1.69835 -0.0039,-3.173372 1.138923,0.01778 2.073383,-0.0016 3.178875,-0.0016 z"
             style="font-family:'moon light';-inkscape-font-specification:'moon light, Normal';opacity:1;fill:url(#linearGradient5582);fill-opacity:1;stroke:#000000;stroke-width:1.31;stroke-dasharray:none;stroke-opacity:1"
             id="path3802"
             sodipodi:nodetypes="cscsscscccccc" />
        </g>
        <g
           aria-label="D"
           id="text471"
           style="font-size:25.4px;font-family:'Bauhaus 93';-inkscape-font-specification:'Bauhaus 93, Normal';fill:url(#linearGradient3856);fill-opacity:1;stroke:#000000;stroke-width:1.31;stroke-linecap:round;stroke-dasharray:none;stroke-opacity:1"
           transform="matrix(1.406795,0,0,1.2571341,-12.129827,43.246284)">
          <path
             d="m 55.39551,-16.387921 h 4.365625 c 2.372982,0 4.373894,1.141015 6.002735,3.423046 0.727604,1.248503 1.091406,2.422591 1.091406,3.5222661 v 2.778125 c 0,2.025716 -0.975651,3.861263 -2.926953,5.50664 -1.339453,0.95911503 -2.728516,1.43867203 -4.167188,1.43867203 H 55.39551 c -2.937335,0.0352128 -3.20173,0.43878545 -3.174999,-1.09140583 l -1e-6,-2.0835942 V -13.212921 c 0.01747,-1.717998 0.0013,-1.69835 -0.0039,-3.173372 1.138923,0.01778 2.073383,-0.0016 3.178875,-0.0016 z"
             style="font-family:'moon light';-inkscape-font-specification:'moon light, Normal';opacity:1;fill:url(#linearGradient5584);fill-opacity:1;stroke:#000000;stroke-width:1.31;stroke-dasharray:none;stroke-opacity:1"
             id="path593"
             sodipodi:nodetypes="cscsscscccccc" />
        </g>
        <g
           aria-label="NOTÃCIAS"
           transform="matrix(1.2516552,0,0,1.1747718,-11.536775,3.2652677)"
           id="text10467"
           style="font-style:italic;font-size:14.518px;-inkscape-font-specification:'sans-serif, Italic';fill:#f9f9f9;stroke:#d45500;stroke-width:0.01;stroke-linecap:round;filter:url(#filter4361)">
          <path
             d="m 66.620416,47.321599 q 0.588375,-1.75095 1.389417,-3.338856 0.63091,-1.240552 1.69424,-3.112013 0.786864,-1.382329 1.034974,-1.651706 0.248111,-0.269377 0.510399,-0.269377 0.226843,0 0.226843,0.198489 0,0.106333 -0.09924,0.276465 -0.09215,0.163044 -0.588376,0.956997 -1.637528,2.665414 -2.388948,4.38092 -0.680531,1.538284 -1.169663,3.012769 -0.177222,0.531665 -0.389888,0.786864 -0.31191,0.382799 -0.630909,0.382799 -0.290643,0 -0.368621,-0.418243 -0.03544,-0.170133 -0.03544,-0.652176 0,-1.694239 0.333177,-3.764189 0.297732,-1.814749 0.602553,-2.913524 -0.680531,0.75142 -2.034505,3.147457 -1.070418,1.899816 -1.602084,3.544434 -0.219754,0.680531 -0.318999,0.843575 -0.18431,0.31191 -0.474954,0.31191 -0.12051,0 -0.205577,-0.09924 -0.07089,-0.08507 -0.07089,-0.170133 0,-0.269377 0.460776,-1.424862 0.595465,-1.50284 1.977794,-3.842166 0.822308,-1.396507 1.956527,-2.970236 0.538754,-0.751419 0.801042,-0.971174 0.241022,-0.198489 0.453688,-0.198489 0.09216,0 0.163044,0.05671 0.09924,0.07798 0.09924,0.1914 0,0.141777 -0.07089,0.318999 -0.340266,0.87193 -0.701798,2.417303 -0.574198,2.488193 -0.574198,4.232054 0,0.241022 0.02127,0.737242 z"
             style="font-style:normal;font-family:'Freestyle Script';-inkscape-font-specification:'Freestyle Script';fill:#f4944e"
             id="path6513" />
          <path
             d="m 74.134614,40.140577 q -0.524576,0.09215 -1.24764,0.489132 -0.155955,0.08507 -0.248111,0.08507 -0.09924,0 -0.198488,-0.09924 -0.09924,-0.106333 -0.09924,-0.255199 0,-0.170133 0.177222,-0.297733 0.432421,-0.31191 1.070419,-0.524576 0.772686,-0.262288 1.446129,-0.262288 0.857752,0 1.396506,0.588376 0.489132,0.524576 0.489132,1.297263 0,1.275996 -1.034974,3.097835 -1.120041,1.949438 -2.729214,3.5019 -1.361063,1.31144 -2.339326,1.31144 -0.574199,0 -0.928642,-0.524576 -0.269377,-0.411154 -0.269377,-0.949908 0,-1.325618 0.921553,-3.076568 1.233463,-2.346415 3.594055,-4.38092 z m 0.368622,-0.07798 q 0.12051,0.141778 0.12051,0.248111 0,0.09215 -0.382799,0.517487 -1.55955,1.672973 -2.31097,2.785925 -0.779776,1.148396 -1.19093,2.303882 -0.290643,0.836486 -0.290643,1.481573 0,0.318999 0.127599,0.531665 0.163044,0.262288 0.474954,0.262288 0.659265,0 1.765128,-1.105863 1.403596,-1.403596 2.289704,-2.913525 0.99953,-1.715506 0.99953,-2.927702 0,-0.567109 -0.368621,-0.928641 -0.283554,-0.276466 -0.772686,-0.276466 z"
             style="font-style:normal;font-family:'Freestyle Script';-inkscape-font-specification:'Freestyle Script';fill:#f4944e"
             id="path6515" />
          <path
             d="m 81.407792,40.303621 q -1.417773,0.219755 -2.62997,0.56002 -0.255199,0.09216 -0.396976,0.09216 -0.163044,0 -0.276466,-0.148867 -0.07089,-0.08507 -0.07089,-0.198488 0,-0.304821 0.43951,-0.446598 1.176752,-0.354444 2.771747,-0.652176 1.99906,-0.361532 3.842166,-0.361532 0.62382,0 0.836486,0.07798 0.198489,0.07089 0.198489,0.269377 0,0.333177 -0.489132,0.389888 -0.425332,0.04253 -1.283085,0.0638 -1.708417,0.05671 -2.339326,0.212666 0.177221,0.07089 0.177221,0.219754 0,0.155955 -0.226843,0.489132 -1.346885,1.970705 -2.573259,4.473075 -0.935731,1.899817 -1.368151,3.374301 -0.09924,0.446599 -0.340266,0.446599 -0.219755,0 -0.368621,-0.226844 -0.09924,-0.148866 -0.09924,-0.31191 0,-0.652176 1.240551,-3.175813 0.793954,-1.62335 1.467396,-2.736302 0.269377,-0.453688 1.297263,-2.105394 z"
             style="font-style:normal;font-family:'Freestyle Script';-inkscape-font-specification:'Freestyle Script';fill:#f4944e"
             id="path6517" />
          <path
             d="m 87.688529,39.332446 q 0.113422,0 0.219755,0.120511 0.09216,0.106333 0.09216,0.233932 0,0.177222 -0.1914,0.482043 -0.09216,0.148867 -0.694709,0.985353 -2.821369,3.884699 -3.629499,7.010889 -0.09216,0.50331 -0.382799,0.50331 -0.155955,0 -0.276466,-0.148866 -0.113422,-0.134689 -0.113422,-0.304822 0,-0.354443 0.340266,-1.31144 0.779775,-2.211726 2.793013,-5.288295 0.822309,-1.261818 1.339796,-1.892727 0.333177,-0.389888 0.50331,-0.389888 z m 1.928172,-2.693769 q 0.12051,0 0.198488,0.09215 0.07798,0.07798 0.07798,0.163044 0,0.177222 -0.637998,0.964086 -0.333176,0.411154 -0.467865,0.531665 -0.148866,0.134688 -0.276466,0.134688 -0.219755,0 -0.219755,-0.24811 0,-0.170133 0.269377,-0.489132 0.198489,-0.205577 0.645087,-0.843575 0.219755,-0.304821 0.411155,-0.304821 z"
             style="font-style:normal;font-family:'Freestyle Script';-inkscape-font-specification:'Freestyle Script';fill:#f4944e"
             id="path6519" />
          <path
             d="m 91.991471,39.254469 q 0.474954,0 0.730154,0.340265 0.205577,0.269377 0.205577,0.652176 0,0.68762 -0.460777,1.56664 -0.404065,0.758508 -1.006619,1.361062 -0.396976,0.389888 -0.62382,0.389888 -0.148866,0 -0.276466,-0.148867 -0.09216,-0.106333 -0.09216,-0.241021 0,-0.24811 0.432421,-0.567109 0.609642,-0.453688 0.971174,-0.992442 0.531666,-0.779775 0.531666,-1.318529 0,-0.219755 -0.09924,-0.326088 -0.09216,-0.106333 -0.283554,-0.106333 -0.389888,0 -1.105864,0.567109 -0.815219,0.637999 -1.722594,1.736773 -1.155486,1.396507 -1.758039,2.75048 -0.623821,1.403596 -0.623821,2.396037 0,0.474954 0.276466,0.808131 0.304822,0.37571 0.744331,0.37571 0.765598,0 1.928172,-1.19093 0.347355,-0.361532 0.843575,-1.049152 0.326088,-0.43951 0.418243,-0.62382 0.106333,-0.205577 0.248111,-0.205577 0.155955,0 0.155955,0.148866 0,0.318999 -0.793953,1.431951 -0.659265,0.928642 -1.453218,1.517018 -0.893197,0.659264 -1.68715,0.659264 -0.829398,0 -1.283085,-0.744331 -0.290644,-0.474954 -0.290644,-1.084596 0,-1.531196 1.446129,-3.863433 1.233463,-1.984883 2.601614,-3.197079 1.183841,-1.042063 2.027416,-1.042063 z"
             style="font-style:normal;font-family:'Freestyle Script';-inkscape-font-specification:'Freestyle Script';fill:#f4944e"
             id="path6521" />
          <path
             d="m 97.031655,39.332446 q 0.113422,0 0.219755,0.120511 0.09215,0.106333 0.09215,0.233932 0,0.177222 -0.191399,0.482043 -0.09216,0.148867 -0.694709,0.985353 -2.821369,3.884699 -3.6295,7.010889 -0.09215,0.50331 -0.382799,0.50331 -0.155955,0 -0.276466,-0.148866 -0.113422,-0.134689 -0.113422,-0.304822 0,-0.354443 0.340266,-1.31144 0.779775,-2.211726 2.793014,-5.288295 0.822308,-1.261818 1.339795,-1.892727 0.333177,-0.389888 0.50331,-0.389888 z"
             style="font-style:normal;font-family:'Freestyle Script';-inkscape-font-specification:'Freestyle Script';fill:#f4944e"
             id="path6523" />
          <path
             d="m 99.959355,44.457697 q -1.609172,0.318999 -2.693769,0.75142 -0.652176,0.956997 -1.431951,2.296793 l -0.37571,0.659264 q -0.09924,0.177222 -0.304821,0.510399 -0.226844,0.389888 -0.474955,0.389888 -0.134688,0 -0.226843,-0.106333 -0.09216,-0.09216 -0.09216,-0.205578 0,-0.198488 0.531666,-1.127129 0.290643,-0.50331 0.879019,-1.424863 0.226844,-0.354443 0.361532,-0.581287 -0.425332,0.120511 -0.779775,0.276466 -0.170133,0.07798 -0.283555,0.07798 -0.141777,0 -0.219755,-0.127599 -0.05671,-0.07798 -0.05671,-0.184311 0,-0.241021 0.170133,-0.340265 0.276466,-0.170133 0.992442,-0.389888 0.531665,-0.170133 0.843575,-0.31191 0.148866,-0.184311 0.779775,-1.084597 0.269377,-0.389887 1.531195,-1.843105 0.907382,-1.06333 1.871462,-1.977794 0.56002,-0.538754 0.85776,-0.538754 0.18431,0 0.31899,0.148866 0.11343,0.134689 0.11343,0.297733 0,0.198488 -0.19849,0.694709 -0.34027,0.87193 -0.65218,1.864372 -0.26937,0.879019 -0.36153,1.346884 0.1276,0 0.17013,-0.0071 0.20558,-0.0071 0.34027,-0.0071 0.41115,0 0.41115,0.31191 0,0.134688 -0.0922,0.269377 -0.0851,0.127599 -0.19849,0.155955 -0.0425,0.01418 -0.23393,0.01418 -0.40407,0 -0.60256,0.04962 -0.17013,0.503309 -0.53875,2.573258 -0.1914,1.375241 -0.18431,1.687151 0,0.510398 -0.304826,0.510398 -0.241022,0 -0.37571,-0.24811 -0.09924,-0.170133 -0.09924,-0.460777 0,-0.978263 0.347354,-2.637058 0.177222,-0.836486 0.262288,-1.283085 z m 0.198485,-0.765598 q 0.0638,-0.205577 0.32609,-1.098774 0.0638,-0.233933 0.32609,-0.928642 0.26229,-0.715975 0.41824,-1.148396 -0.46077,0.304821 -0.93573,0.808131 -1.67297,1.800572 -2.360591,2.94188 0.262289,-0.0638 1.12713,-0.318999 0.248111,-0.07089 1.098771,-0.2552 z"
             style="font-style:normal;font-family:'Freestyle Script';-inkscape-font-specification:'Freestyle Script';fill:#f4944e"
             id="path6525" />
          <path
             d="m 102.89415,45.634449 q 0.3828,0 0.3828,0.31191 0,0.233933 -0.35445,0.354443 -0.60964,0.219755 -0.60964,0.786865 0,0.453687 0.35444,0.708886 0.30482,0.212666 0.77269,0.212666 0.93573,0 1.63753,-0.545842 0.43951,-0.347355 0.43951,-0.87902 0,-0.326088 -0.1276,-0.588376 -0.13469,-0.269377 -0.41116,-0.680531 -0.42533,-0.637998 -0.71597,-1.162574 -0.32609,-0.581287 -0.32609,-1.141308 0,-1.325618 1.31144,-2.481103 0.69471,-0.602554 1.5312,-0.978264 0.6947,-0.304821 1.33979,-0.304821 0.41824,0 0.70889,0.219755 0.35444,0.262288 0.35444,0.715975 0,0.708887 -0.7656,1.531195 -0.72306,0.772687 -1.68715,1.261819 -0.48204,0.241021 -0.73015,0.241021 -0.16304,0 -0.29064,-0.134688 -0.0851,-0.09216 -0.0851,-0.205577 0,-0.262288 0.46787,-0.425332 0.85775,-0.304822 1.51701,-0.857753 0.85067,-0.708887 0.85067,-1.240552 0,-0.205577 -0.17014,-0.333177 -0.13468,-0.09924 -0.31899,-0.09924 -0.48914,0 -1.22638,0.37571 -0.99244,0.50331 -1.55955,1.297263 -0.49622,0.68762 -0.49622,1.339796 0,0.474954 0.26229,0.978263 0.21975,0.404066 0.56002,0.914464 0.32609,0.489132 0.55293,0.907375 0.26229,0.496221 0.26229,0.928642 0,0.836486 -0.957,1.481573 -0.81522,0.538754 -1.8431,0.538754 -1.01371,0 -1.58791,-0.560021 -0.43242,-0.425332 -0.43242,-0.978263 0,-0.616732 0.41115,-1.034975 0.24811,-0.255199 0.58838,-0.382799 0.23393,-0.09216 0.38989,-0.09216 z"
             style="font-style:normal;font-family:'Freestyle Script';-inkscape-font-specification:'Freestyle Script';fill:#f4944e"
             id="path6527" />
        </g>
      </g>
      <g
         transform="matrix(1.2516238,0,0,1.479422,-9.1019333,-10.450367)"
         id="text10471"
         style="font-style:italic;font-size:6.35px;-inkscape-font-specification:'sans-serif, Italic';fill:#f9f9f9;stroke:#f4944e;stroke-width:0.01;stroke-linecap:round;filter:url(#filter4361)" />
      <g
         transform="matrix(1.2516238,0,0,1.479422,-9.1019333,-10.450367)"
         id="text10479"
         style="font-style:italic;font-size:6.35px;-inkscape-font-specification:'sans-serif, Italic';fill:#f9f9f9;stroke:#f4944e;stroke-width:0.01;stroke-linecap:round;filter:url(#filter4361)" />
      <g
         transform="matrix(1.2516238,0,0,1.479422,-9.1350063,-10.417294)"
         id="text10483"
         style="font-style:italic;font-size:6.35px;-inkscape-font-specification:'sans-serif, Italic';fill:#f9f9f9;stroke:#f4944e;stroke-width:0.01;stroke-linecap:round;filter:url(#filter4361)" />
    </g>
  </g>
</svg>
